<svg version="1.2" xmlns="http://www.w3.org/2000/svg" viewBox="0 0 1023 360" width="1023" height="360">
	<title>banner-svg</title>
	<style>
		.s0 { fill: #1877f2 } 
	</style>
	<path id="Layer" class="s0" d="m166.4 126.7c-9.6 0-12.4 4.3-12.4 13.7v15.7h25.7l-2.5 25.3h-23.2v76.7h-30.9v-76.7h-20.8v-25.3h20.8v-15.3c0-25.5 10.3-39 39-39q2.3 0 4.5 0.1 2.3 0.1 4.5 0.2 2.3 0.1 4.5 0.3 2.3 0.2 4.5 0.5v23.8z"/>
	<path id="Layer" fill-rule="evenodd" class="s0" d="m181.9 203.9c0-28.5 13.5-50 41.8-50 15.4 0 24.9 7.9 29.4 17.8v-15.6h29.6v102h-29.6v-15.4c-4.3 9.9-14 17.6-29.4 17.6-28.3 0-41.8-21.5-41.8-50zm30.8 6.9c0 15.2 5.6 25.3 20 25.3 12.6 0 19.1-9.3 19.1-23.8v-10.3c0-14.6-6.5-23.8-19.1-23.8-14.4 0-20 10.1-20 25.3z"/>
	<path id="Layer" fill-rule="evenodd" class="s0" d="m380.7 211v-9c0-28.9 16.5-48 50.2-48 31.7 0 45.6 19.3 45.6 47.6v16.3h-65c0.7 14 6.9 20.2 24 20.2 11.6 0 23.8-2.4 32.9-6.2l5.6 21.1c-8.1 4.3-24.9 7.5-39.7 7.5-39.1 0-53.6-19.5-53.6-49.5zm30.8-13.3h37.4v-2.6c0-11.1-4.5-20-18-20-14 0-19.4 8.8-19.4 22.6z"/>
	<path id="Layer" fill-rule="evenodd" class="s0" d="m591 210.3c0 28.5-13.7 50-42 50-15.4 0-26.2-7.7-30.5-17.6v15.5h-29.1v-153.4l30.9-2.8v68.2c4.5-9 14.3-16.3 28.7-16.3 28.3 0 42 21.4 42 50zm-30.9-7.1c0-14.4-5.5-25.1-20.3-25.1-12.7 0-19.6 9-19.6 23.6v10.7c0 14.6 6.9 23.6 19.6 23.6 14.8 0 20.3-10.7 20.3-25.1z"/>
	<path id="Layer" fill-rule="evenodd" class="s0" d="m601.3 209.7v-5.2c0-29.4 16.8-50.6 50.9-50.6 34.1 0 50.8 21.2 50.8 50.6v5.2c0 29.3-16.7 50.6-50.8 50.6-34.1 0-50.9-21.2-50.9-50.6zm70.8-7.3c0-13.5-5.6-24.2-20-24.2-14.4 0-19.9 10.7-19.9 24.2v9.4c0 13.5 5.5 24.2 19.9 24.2 14.4 0 20-10.7 20-24.2z"/>
	<path id="Layer" fill-rule="evenodd" class="s0" d="m713.3 209.7v-5.2c0-29.4 16.7-50.6 50.8-50.6 34.1 0 50.8 21.2 50.8 50.6v5.2c0 29.3-16.7 50.6-50.8 50.6-34.1 0-50.8-21.2-50.8-50.6zm70.8-7.3c0-13.5-5.6-24.2-20-24.2-14.4 0-19.9 10.7-19.9 24.2v9.4c0 13.5 5.5 24.2 19.9 24.2 14.4 0 20-10.7 20-24.2z"/>
	<path id="Layer" class="s0" d="m857.4 204.7l30.4-48.6h32.9l-32 50.4 33.2 51.6h-32.8l-31.7-50v50h-30.9v-153.3l30.9-2.8z"/>
	<path id="Layer copy" class="s0" d="m322.4 203.7l30.4-48.6h32.9l-32 50.4 33.2 51.6h-32.8l-31.7-50v50h-30.9v-153.3l30.9-2.8z"/>
</svg>